<svg xmlns="http://www.w3.org/2000/svg" xmlns:xlink="http://www.w3.org/1999/xlink" width="627" height="158" viewBox="0 0 627 158">
  <defs>
    <polygon id="cesi_logo_general_nb-a" points=".06 .206 125.756 .206 125.756 126 .06 126"/>
  </defs>
  <g fill="none" fill-rule="evenodd">
    <g transform="translate(0 32)">
      <mask id="cesi_logo_general_nb-b" fill="#fff">
        <use xlink:href="#cesi_logo_general_nb-a"/>
      </mask>
      <polyline fill="#1A1919" points="11.824 .206 0 .206 0 126 125.756 126 125.756 114.176 11.824 114.176 11.824 .206" mask="url(#cesi_logo_general_nb-b)"/>
    </g>
    <polyline fill="#1A1919" points="55.403 .622 55.403 32.192 125.762 32.192 125.762 102.288 157.463 102.288 157.463 .622 55.403 .622"/>
    <path fill="#1A1919" d="M40.553 102.666C35.246 102.666 30.025 99.409 30.025 90.563 30.025 81.721 35.246 78.508 40.553 78.508 43.805 78.508 46.085 79.437 48.326 81.813L45.066 84.981C43.582 83.348 42.408 82.743 40.553 82.743 38.735 82.743 37.199 83.491 36.178 84.842 35.151 86.143 34.78 87.819 34.78 90.563 34.78 93.313 35.151 95.036 36.178 96.336 37.199 97.686 38.735 98.434 40.553 98.434 42.408 98.434 43.582 97.825 45.066 96.194L48.326 99.319C46.085 101.69 43.805 102.666 40.553 102.666M66.428 85.442C65.686 83.676 64.016 82.463 61.768 82.463 59.536 82.463 57.814 83.676 57.074 85.442 56.6 86.514 56.518 87.215 56.467 88.657L67.082 88.657C67.039 87.215 66.9 86.514 66.428 85.442zM56.467 91.961C56.467 96.01 58.613 98.571 62.47 98.571 65.131 98.571 66.523 97.825 68.195 96.149L71.221 98.991C68.802 101.413 66.523 102.666 62.381 102.666 56.467 102.666 51.773 99.545 51.773 90.563 51.773 82.928 55.721 78.508 61.768 78.508 68.099 78.508 71.783 83.161 71.783 89.868L71.783 91.961 56.467 91.961zM85.7 102.666C81.844 102.666 78.572 102.016 75.784 99.268L78.91 96.149C80.811 98.104 83.368 98.618 85.7 98.618 88.585 98.618 90.863 97.59 90.863 95.356 90.863 93.776 89.98 92.752 87.707 92.565L83.928 92.243C79.514 91.87 76.955 89.868 76.955 85.723 76.955 81.112 80.906 78.508 85.848 78.508 89.381 78.508 92.398 79.254 94.588 81.159L91.615 84.188C90.123 82.928 88.027 82.463 85.795 82.463 82.948 82.463 81.508 83.721 81.508 85.487 81.508 86.889 82.262 87.957 84.775 88.188L88.496 88.518C92.916 88.889 95.523 90.983 95.523 95.172 95.523 100.106 91.334 102.666 85.7 102.666"/>
    <polygon fill="#1A1919" points="101.291 102.385 106.036 102.385 106.036 78.789 101.291 78.789"/>
    <path fill="#1A1919" d="M195.328 39.692C195.218 41.864 194.607 43.527 193.498 44.683 192.39 45.839 190.823 46.416 188.8 46.416 186.768 46.416 185.151 45.644 183.955 44.099 182.758 42.553 182.16 40.458 182.16 37.813L182.16 34.138C182.16 31.502 182.774 29.419 184.004 27.888 185.233 26.356 186.911 25.591 189.036 25.591 190.995 25.591 192.51 26.175 193.582 27.345 194.653 28.514 195.235 30.189 195.328 32.37L192.753 32.37C192.643 30.718 192.293 29.539 191.709 28.834 191.125 28.129 190.233 27.776 189.036 27.776 187.653 27.776 186.59 28.317 185.849 29.397 185.106 30.479 184.735 32.063 184.735 34.152L184.735 37.869C184.735 39.92 185.081 41.493 185.772 42.588 186.464 43.683 187.473 44.23 188.8 44.23 190.127 44.23 191.083 43.901 191.668 43.242 192.252 42.583 192.614 41.4 192.753 39.692L195.328 39.692M202.337 38.648L207.864 38.648 205.094 29.432 202.337 38.648zM208.519 40.834L201.669 40.834 200.097 46.138 197.479 46.138 204.009 25.869 206.194 25.869 212.735 46.138 210.119 46.138 208.519 40.834z"/>
    <polyline fill="#1A1919" points="219.063 25.869 224.354 42.407 229.643 25.869 232.929 25.869 232.929 46.138 230.381 46.138 230.381 38.244 230.618 30.338 225.314 46.138 223.364 46.138 218.089 30.394 218.326 38.244 218.326 46.138 215.778 46.138 215.778 25.869 219.063 25.869"/>
    <path fill="#1A1919" d="M240.146 36.018L244.058 36.018C245.19 36.018 246.058 35.678 246.66 34.999 247.265 34.32 247.566 33.35 247.566 32.085 247.566 30.867 247.255 29.891 246.633 29.156 246.012 28.422 245.156 28.055 244.072 28.055L240.146 28.055 240.146 36.018zM240.146 38.203L240.146 46.138 237.599 46.138 237.599 25.869 244.058 25.869C245.941 25.869 247.422 26.432 248.499 27.561 249.575 28.687 250.113 30.189 250.113 32.063 250.113 34.013 249.601 35.514 248.575 36.567 247.55 37.62 246.104 38.166 244.239 38.203L240.146 38.203zM265.767 25.869L265.767 40.277C265.748 42.198 265.191 43.701 264.097 44.787 263.001 45.873 261.475 46.416 259.517 46.416 257.512 46.416 255.98 45.885 254.923 44.822 253.864 43.76 253.326 42.245 253.307 40.277L253.307 25.869 255.842 25.869 255.842 40.169C255.842 41.532 256.131 42.55 256.711 43.222 257.291 43.895 258.227 44.23 259.517 44.23 260.815 44.23 261.755 43.895 262.335 43.222 262.915 42.55 263.205 41.532 263.205 40.169L263.205 25.869 265.767 25.869M278.831 41.015C278.831 40.003 278.558 39.228 278.01 38.69 277.461 38.152 276.474 37.628 275.045 37.117 273.615 36.606 272.522 36.07 271.767 35.509 271.01 34.948 270.443 34.308 270.067 33.588 269.692 32.869 269.504 32.045 269.504 31.117 269.504 29.512 270.04 28.189 271.111 27.149 272.184 26.11 273.588 25.591 275.323 25.591 276.51 25.591 277.569 25.855 278.497 26.386 279.425 26.916 280.139 27.654 280.641 28.6 281.142 29.545 281.393 30.584 281.393 31.716L278.831 31.716C278.831 30.463 278.529 29.493 277.926 28.807 277.323 28.119 276.455 27.776 275.323 27.776 274.293 27.776 273.495 28.064 272.929 28.641 272.362 29.217 272.08 30.026 272.08 31.067 272.08 31.923 272.386 32.639 272.998 33.215 273.611 33.791 274.558 34.308 275.837 34.763 277.833 35.423 279.261 36.235 280.119 37.2 280.978 38.166 281.406 39.428 281.406 40.987 281.406 42.63 280.873 43.945 279.806 44.934 278.738 45.922 277.286 46.416 275.448 46.416 274.27 46.416 273.182 46.158 272.184 45.644 271.187 45.129 270.402 44.404 269.831 43.472 269.261 42.539 268.976 41.47 268.976 40.263L271.536 40.263C271.536 41.516 271.886 42.49 272.588 43.187 273.288 43.883 274.242 44.23 275.448 44.23 276.571 44.23 277.416 43.943 277.982 43.367 278.548 42.792 278.831 42.008 278.831 41.015M185.167 56.202L185.167 72.1 187.213 72.1C189.004 72.1 190.313 71.587 191.139 70.56 191.965 69.534 192.386 68.013 192.405 65.997L192.405 62.402C192.405 60.266 191.995 58.698 191.174 57.7 190.353 56.701 189.11 56.202 187.449 56.202L185.167 56.202zM182.619 74.285L182.619 54.017 187.449 54.017C189.815 54.017 191.653 54.757 192.961 56.237 194.271 57.717 194.925 59.799 194.925 62.48L194.925 65.877C194.925 68.56 194.262 70.631 192.935 72.093 191.607 73.555 189.682 74.285 187.156 74.285L182.619 74.285zM199.15 59.724L197.771 58.722C198.496 57.506 198.871 56.244 198.899 54.936L198.899 52.902 201.336 52.902 201.336 54.782C201.316 55.673 201.11 56.576 200.716 57.489 200.321 58.404 199.8 59.148 199.15 59.724"/>
    <polyline fill="#1A1919" points="214.72 64.916 207.55 64.916 207.55 72.1 215.903 72.1 215.903 74.285 205.003 74.285 205.003 54.017 215.762 54.017 215.762 56.202 207.55 56.202 207.55 62.73 214.72 62.73 214.72 64.916"/>
    <polyline fill="#1A1919" points="232.683 74.285 230.123 74.285 222.006 58.666 222.006 74.285 219.445 74.285 219.445 54.017 222.006 54.017 230.15 69.705 230.15 54.017 232.683 54.017 232.683 74.285"/>
    <path fill="#1A1919" d="M246.235,69.162 C246.235,68.15 245.963,67.376 245.415,66.838 C244.867,66.3 243.879,65.775 242.45,65.265 C241.021,64.754 239.928,64.218 239.172,63.656 C238.415,63.096 237.85,62.455 237.474,61.735 C237.098,61.017 236.908,60.192 236.908,59.265 C236.908,57.659 237.445,56.337 238.518,55.297 C239.589,54.258 240.992,53.738 242.729,53.738 C243.916,53.738 244.975,54.003 245.902,54.533 C246.83,55.063 247.545,55.802 248.045,56.747 C248.547,57.692 248.798,58.731 248.798,59.863 L246.235,59.863 C246.235,58.61 245.935,57.641 245.332,56.954 C244.729,56.267 243.859,55.924 242.729,55.924 C241.698,55.924 240.9,56.212 240.334,56.788 C239.768,57.364 239.485,58.174 239.485,59.215 C239.485,60.07 239.791,60.786 240.403,61.362 C241.017,61.938 241.963,62.455 243.243,62.91 C245.238,63.57 246.666,64.383 247.524,65.348 C248.382,66.313 248.811,67.575 248.811,69.135 C248.811,70.777 248.278,72.093 247.211,73.081 C246.143,74.069 244.691,74.563 242.854,74.563 C241.675,74.563 240.587,74.306 239.589,73.791 C238.592,73.276 237.808,72.552 237.235,71.619 C236.666,70.687 236.381,69.617 236.381,68.41 L238.942,68.41 C238.942,69.663 239.292,70.638 239.992,71.334 C240.693,72.03 241.647,72.378 242.854,72.378 C243.977,72.378 244.821,72.091 245.388,71.515 C245.952,70.939 246.235,70.155 246.235,69.162"/>
    <polyline fill="#1A1919" points="262.154 64.916 254.985 64.916 254.985 72.1 263.337 72.1 263.337 74.285 252.438 74.285 252.438 54.017 263.198 54.017 263.198 56.202 254.985 56.202 254.985 62.73 262.154 62.73 262.154 64.916"/>
    <polygon fill="#1A1919" points="266.991 74.286 269.539 74.286 269.539 54.017 266.991 54.017"/>
    <path fill="#1A1919" d="M286.975,71.766 L286.529,72.322 C285.249,73.816 283.374,74.563 280.905,74.563 C278.715,74.563 276.996,73.838 275.748,72.385 C274.499,70.933 273.861,68.879 273.834,66.225 L273.834,62.244 C273.834,59.404 274.402,57.276 275.539,55.861 C276.676,54.446 278.376,53.738 280.641,53.738 C282.571,53.738 284.081,54.274 285.172,55.346 C286.262,56.418 286.863,57.951 286.975,59.946 L284.428,59.946 C284.324,58.685 283.975,57.698 283.376,56.988 C282.777,56.278 281.87,55.924 280.655,55.924 C279.195,55.924 278.129,56.399 277.452,57.351 C276.775,58.302 276.422,59.821 276.395,61.909 L276.395,66.044 C276.395,68.086 276.784,69.652 277.564,70.742 C278.344,71.833 279.461,72.378 280.919,72.378 C282.293,72.378 283.337,72.046 284.052,71.38 L284.428,71.034 L284.428,66.378 L280.725,66.378 L280.725,64.192 L286.975,64.192 L286.975,71.766"/>
    <polyline fill="#1A1919" points="304.66 74.285 302.099 74.285 293.983 58.666 293.983 74.285 291.422 74.285 291.422 54.017 293.983 54.017 302.127 69.705 302.127 54.017 304.66 54.017 304.66 74.285"/>
    <polyline fill="#1A1919" points="319.075 64.916 311.906 64.916 311.906 72.1 320.259 72.1 320.259 74.285 309.358 74.285 309.358 54.017 320.119 54.017 320.119 56.202 311.906 56.202 311.906 62.73 319.075 62.73 319.075 64.916"/>
    <polyline fill="#1A1919" points="327.085 54.017 332.376 70.555 337.666 54.017 340.951 54.017 340.951 74.285 338.403 74.285 338.403 66.392 338.641 58.485 333.337 74.285 331.388 74.285 326.111 58.541 326.349 66.392 326.349 74.285 323.801 74.285 323.801 54.017 327.085 54.017"/>
    <polyline fill="#1A1919" points="355.337 64.916 348.169 64.916 348.169 72.1 356.521 72.1 356.521 74.285 345.62 74.285 345.62 54.017 356.382 54.017 356.382 56.202 348.169 56.202 348.169 62.73 355.337 62.73 355.337 64.916"/>
    <polyline fill="#1A1919" points="373.302 74.285 370.742 74.285 362.626 58.666 362.626 74.285 360.063 74.285 360.063 54.017 362.626 54.017 370.77 69.705 370.77 54.017 373.302 54.017 373.302 74.285"/>
    <polyline fill="#1A1919" points="389.443 56.202 384.111 56.202 384.111 74.285 381.564 74.285 381.564 56.202 376.246 56.202 376.246 54.017 389.443 54.017 389.443 56.202"/>
    <path fill="#1A1919" d="M407.832 69.162C407.832 68.15 407.559 67.376 407.01 66.838 406.463 66.3 405.475 65.775 404.045 65.265 402.616 64.754 401.523 64.218 400.768 63.656 400.01 63.096 399.445 62.455 399.069 61.735 398.693 61.017 398.505 60.192 398.505 59.265 398.505 57.659 399.041 56.337 400.113 55.297 401.185 54.258 402.589 53.738 404.324 53.738 405.512 53.738 406.57 54.003 407.498 54.533 408.426 55.063 409.141 55.802 409.642 56.747 410.143 57.692 410.394 58.731 410.394 59.863L407.832 59.863C407.832 58.61 407.53 57.641 406.928 56.954 406.324 56.267 405.456 55.924 404.324 55.924 403.293 55.924 402.496 56.212 401.93 56.788 401.363 57.364 401.081 58.174 401.081 59.215 401.081 60.07 401.386 60.786 401.999 61.362 402.611 61.938 403.559 62.455 404.837 62.91 406.834 63.57 408.262 64.383 409.12 65.348 409.979 66.313 410.407 67.575 410.407 69.135 410.407 70.777 409.874 72.093 408.807 73.081 407.739 74.069 406.287 74.563 404.449 74.563 403.271 74.563 402.183 74.306 401.185 73.791 400.187 73.276 399.403 72.552 398.832 71.619 398.262 70.687 397.977 69.617 397.977 68.41L400.538 68.41C400.538 69.663 400.888 70.638 401.589 71.334 402.289 72.03 403.243 72.378 404.449 72.378 405.572 72.378 406.417 72.091 406.983 71.515 407.549 70.939 407.832 70.155 407.832 69.162M426.116 54.017L426.116 68.425C426.099 70.346 425.542 71.849 424.447 72.935 423.351 74.02 421.825 74.563 419.867 74.563 417.862 74.563 416.331 74.032 415.273 72.97 414.214 71.907 413.677 70.393 413.658 68.425L413.658 54.017 416.191 54.017 416.191 68.316C416.191 69.68 416.481 70.697 417.062 71.369 417.642 72.042 418.576 72.378 419.867 72.378 421.166 72.378 422.105 72.042 422.686 71.369 423.266 70.697 423.554 69.68 423.554 68.316L423.554 54.017 426.116 54.017M432.876 64.165L436.787 64.165C437.92 64.165 438.787 63.825 439.391 63.146 439.994 62.468 440.296 61.497 440.296 60.232 440.296 59.015 439.983 58.038 439.362 57.304 438.74 56.569 437.886 56.202 436.802 56.202L432.876 56.202 432.876 64.165zM432.876 66.351L432.876 74.285 430.328 74.285 430.328 54.017 436.787 54.017C438.671 54.017 440.151 54.58 441.229 55.708 442.305 56.835 442.843 58.337 442.843 60.211 442.843 62.16 442.33 63.661 441.305 64.715 440.279 65.768 438.834 66.313 436.969 66.351L432.876 66.351zM453.012 48.448L456.129 48.448 452.399 52.541 450.324 52.534 453.012 48.448zM456.129 64.916L448.961 64.916 448.961 72.1 457.313 72.1 457.313 74.285 446.412 74.285 446.412 54.017 457.174 54.017 457.174 56.202 448.961 56.202 448.961 62.73 456.129 62.73 456.129 64.916zM463.417 63.9L466.508 63.9C467.574 63.9 468.426 63.557 469.062 62.868 469.697 62.181 470.016 61.26 470.016 60.106 470.016 57.504 468.837 56.202 466.479 56.202L463.417 56.202 463.417 63.9zM466.98 66.086L463.417 66.086 463.417 74.285 460.855 74.285 460.855 54.017 466.535 54.017C468.521 54.017 470.023 54.534 471.045 55.568 472.066 56.603 472.576 58.118 472.576 60.114 472.576 61.366 472.301 62.459 471.748 63.393 471.195 64.325 470.414 65.027 469.403 65.501L473.328 74.118 473.328 74.285 470.585 74.285 466.98 66.086z"/>
    <polygon fill="#1A1919" points="476.384 74.286 478.931 74.286 478.931 54.017 476.384 54.017"/>
    <polyline fill="#1A1919" points="493.402 64.916 486.233 64.916 486.233 72.1 494.585 72.1 494.585 74.285 483.686 74.285 483.686 54.017 494.446 54.017 494.446 56.202 486.233 56.202 486.233 62.73 493.402 62.73 493.402 64.916"/>
    <path fill="#1A1919" d="M510.211 54.017L510.211 68.425C510.191 70.346 509.636 71.849 508.541 72.935 507.445 74.02 505.919 74.563 503.961 74.563 501.956 74.563 500.425 74.032 499.367 72.97 498.309 71.907 497.771 70.393 497.752 68.425L497.752 54.017 500.286 54.017 500.286 68.316C500.286 69.68 500.575 70.697 501.155 71.369 501.735 72.042 502.671 72.378 503.961 72.378 505.26 72.378 506.199 72.042 506.779 71.369 507.359 70.697 507.649 69.68 507.649 68.316L507.649 54.017 510.211 54.017M516.983 63.9L520.074 63.9C521.141 63.9 521.992 63.557 522.628 62.868 523.264 62.181 523.582 61.26 523.582 60.106 523.582 57.504 522.403 56.202 520.045 56.202L516.983 56.202 516.983 63.9zM520.547 66.086L516.983 66.086 516.983 74.285 514.422 74.285 514.422 54.017 520.102 54.017C522.088 54.017 523.59 54.534 524.611 55.568 525.633 56.603 526.143 58.118 526.143 60.114 526.143 61.366 525.867 62.459 525.314 63.393 524.762 64.325 523.98 65.027 522.97 65.501L526.895 74.118 526.895 74.285 524.151 74.285 520.547 66.086z"/>
    <polyline fill="#1A1919" points="192.336 93.065 185.167 93.065 185.167 100.249 193.519 100.249 193.519 102.434 182.619 102.434 182.619 82.165 193.38 82.165 193.38 84.35 185.167 84.35 185.167 90.879 192.336 90.879 192.336 93.065"/>
    <polyline fill="#1A1919" points="209.187 84.35 203.854 84.35 203.854 102.434 201.307 102.434 201.307 84.35 195.988 84.35 195.988 82.165 209.187 82.165 209.187 84.35"/>
    <path fill="#1A1919" d="M221.27,84.35 L221.27,100.249 L223.315,100.249 C225.106,100.249 226.415,99.735 227.241,98.707 C228.067,97.682 228.489,96.161 228.508,94.145 L228.508,90.551 C228.508,88.415 228.098,86.846 227.275,85.848 C226.455,84.85 225.213,84.35 223.552,84.35 L221.27,84.35 Z M218.722,102.434 L218.722,82.165 L223.552,82.165 C225.919,82.165 227.756,82.905 229.063,84.385 C230.373,85.866 231.027,87.948 231.027,90.629 L231.027,94.026 C231.027,96.707 230.364,98.78 229.036,100.241 C227.709,101.704 225.784,102.434 223.26,102.434 L218.722,102.434 Z"/>
    <polyline fill="#1A1919" points="244.997 93.065 237.828 93.065 237.828 100.249 246.181 100.249 246.181 102.434 235.28 102.434 235.28 82.165 246.041 82.165 246.041 84.35 237.828 84.35 237.828 90.879 244.997 90.879 244.997 93.065"/>
    <polyline fill="#1A1919" points="265.934 93.483 259.085 93.483 259.085 102.434 256.536 102.434 256.536 82.165 267.089 82.165 267.089 84.35 259.085 84.35 259.085 91.297 265.934 91.297 265.934 93.483"/>
    <path fill="#1A1919" d="M281.155 90.532C281.155 88.387 280.805 86.793 280.104 85.75 279.403 84.706 278.328 84.184 276.882 84.184 275.479 84.184 274.42 84.713 273.7 85.77 272.981 86.828 272.617 88.387 272.607 90.448L272.607 94.081C272.607 96.151 272.966 97.729 273.687 98.815 274.405 99.901 275.479 100.444 276.908 100.444 278.337 100.444 279.396 99.942 280.083 98.94 280.77 97.938 281.127 96.401 281.155 94.332L281.155 90.532zM283.702 94.081C283.702 96.846 283.113 98.977 281.935 100.471 280.756 101.965 279.081 102.711 276.908 102.711 274.821 102.711 273.172 101.987 271.96 100.534 270.749 99.081 270.12 97.028 270.074 94.374L270.074 90.559C270.074 87.85 270.673 85.727 271.87 84.19 273.067 82.655 274.737 81.887 276.882 81.887 279.016 81.887 280.68 82.621 281.872 84.092 283.063 85.565 283.675 87.665 283.702 90.393L283.702 94.081zM290.489 92.049L293.58 92.049C294.646 92.049 295.498 91.706 296.134 91.016 296.77 90.328 297.088 89.409 297.088 88.254 297.088 85.653 295.908 84.35 293.552 84.35L290.489 84.35 290.489 92.049zM294.053 94.235L290.489 94.235 290.489 102.434 287.928 102.434 287.928 82.165 293.607 82.165C295.594 82.165 297.097 82.682 298.118 83.717 299.139 84.752 299.649 86.266 299.649 88.262 299.649 89.514 299.373 90.608 298.819 91.541 298.269 92.473 297.486 93.176 296.475 93.649L300.399 102.266 300.399 102.434 297.658 102.434 294.053 94.235z"/>
    <polyline fill="#1A1919" points="306.629 82.165 311.92 98.703 317.209 82.165 320.495 82.165 320.495 102.434 317.947 102.434 317.947 94.54 318.185 86.633 312.881 102.434 310.931 102.434 305.655 86.69 305.893 94.54 305.893 102.434 303.345 102.434 303.345 82.165 306.629 82.165"/>
    <path fill="#1A1919" d="M328.687,94.944 L334.214,94.944 L331.443,85.729 L328.687,94.944 Z M334.868,97.129 L328.019,97.129 L326.446,102.434 L323.828,102.434 L330.358,82.165 L332.544,82.165 L339.085,102.434 L336.469,102.434 L334.868,97.129 Z"/>
    <polyline fill="#1A1919" points="352.178 84.35 346.847 84.35 346.847 102.434 344.3 102.434 344.3 84.35 338.981 84.35 338.981 82.165 352.178 82.165 352.178 84.35"/>
    <polygon fill="#1A1919" points="355.567 102.434 358.115 102.434 358.115 82.165 355.567 82.165"/>
    <path fill="#1A1919" d="M373.505,90.532 C373.505,88.387 373.154,86.793 372.454,85.75 C371.753,84.706 370.678,84.184 369.231,84.184 C367.828,84.184 366.77,84.713 366.05,85.77 C365.331,86.828 364.966,88.387 364.957,90.448 L364.957,94.081 C364.957,96.151 365.316,97.729 366.036,98.815 C366.755,99.901 367.828,100.444 369.259,100.444 C370.687,100.444 371.746,99.942 372.433,98.94 C373.119,97.938 373.477,96.401 373.505,94.332 L373.505,90.532 Z M376.052,94.081 C376.052,96.846 375.463,98.977 374.284,100.471 C373.105,101.965 371.431,102.711 369.259,102.711 C367.171,102.711 365.521,101.987 364.31,100.534 C363.099,99.081 362.47,97.028 362.424,94.374 L362.424,90.559 C362.424,87.85 363.022,85.727 364.22,84.19 C365.417,82.655 367.087,81.887 369.231,81.887 C371.364,81.887 373.029,82.621 374.222,84.092 C375.414,85.565 376.023,87.665 376.052,90.393 L376.052,94.081 Z"/>
    <polyline fill="#1A1919" points="393.515 102.434 390.954 102.434 382.837 86.815 382.837 102.434 380.275 102.434 380.275 82.165 382.837 82.165 390.981 97.854 390.981 82.165 393.515 82.165 393.515 102.434"/>
    <path fill="#1A1919" d="M407.575 92.313L411.486 92.313C412.619 92.313 413.486 91.973 414.09 91.295 414.693 90.616 414.995 89.645 414.995 88.381 414.995 87.162 414.683 86.186 414.062 85.452 413.439 84.717 412.585 84.35 411.501 84.35L407.575 84.35 407.575 92.313zM407.575 94.499L407.575 102.434 405.027 102.434 405.027 82.165 411.486 82.165C413.37 82.165 414.851 82.729 415.928 83.856 417.004 84.983 417.542 86.485 417.542 88.36 417.542 90.309 417.029 91.809 416.004 92.864 414.979 93.916 413.532 94.461 411.668 94.499L407.575 94.499zM423.674 92.049L426.765 92.049C427.831 92.049 428.683 91.706 429.318 91.016 429.954 90.328 430.271 89.409 430.271 88.254 430.271 85.653 429.094 84.35 426.735 84.35L423.674 84.35 423.674 92.049zM427.237 94.235L423.674 94.235 423.674 102.434 421.111 102.434 421.111 82.165 426.792 82.165C428.778 82.165 430.281 82.682 431.302 83.717 432.323 84.752 432.834 86.266 432.834 88.262 432.834 89.514 432.558 90.608 432.005 91.541 431.452 92.473 430.671 93.176 429.66 93.649L433.585 102.266 433.585 102.434 430.843 102.434 427.237 94.235zM447.165 90.532C447.165 88.387 446.814 86.793 446.114 85.75 445.412 84.706 444.339 84.184 442.891 84.184 441.489 84.184 440.43 84.713 439.709 85.77 438.991 86.828 438.627 88.387 438.617 90.448L438.617 94.081C438.617 96.151 438.977 97.729 439.695 98.815 440.415 99.901 441.489 100.444 442.919 100.444 444.346 100.444 445.406 99.942 446.093 98.94 446.779 97.938 447.137 96.401 447.165 94.332L447.165 90.532zM449.712 94.081C449.712 96.846 449.123 98.977 447.943 100.471 446.766 101.965 445.091 102.711 442.919 102.711 440.831 102.711 439.182 101.987 437.97 100.534 436.758 99.081 436.129 97.028 436.084 94.374L436.084 90.559C436.084 87.85 436.683 85.727 437.88 84.19 439.076 82.655 440.747 81.887 442.891 81.887 445.025 81.887 446.689 82.621 447.882 84.092 449.074 85.565 449.685 87.665 449.712 90.393L449.712 94.081z"/>
    <polyline fill="#1A1919" points="463.333 93.483 456.484 93.483 456.484 102.434 453.937 102.434 453.937 82.165 464.487 82.165 464.487 84.35 456.484 84.35 456.484 91.297 463.333 91.297 463.333 93.483"/>
    <polyline fill="#1A1919" points="477.637 93.065 470.468 93.065 470.468 100.249 478.819 100.249 478.819 102.434 467.92 102.434 467.92 82.165 478.681 82.165 478.681 84.35 470.468 84.35 470.468 90.879 477.637 90.879 477.637 93.065"/>
    <path fill="#1A1919" d="M491.216 97.311C491.216 96.299 490.942 95.524 490.395 94.987 489.846 94.448 488.858 93.924 487.43 93.412 486 92.903 484.907 92.366 484.151 91.805 483.395 91.245 482.828 90.604 482.452 89.883 482.076 89.165 481.889 88.34 481.889 87.412 481.889 85.807 482.425 84.485 483.497 83.446 484.567 82.407 485.973 81.887 487.708 81.887 488.895 81.887 489.954 82.151 490.882 82.682 491.81 83.211 492.524 83.95 493.025 84.895 493.526 85.84 493.777 86.879 493.777 88.012L491.216 88.012C491.216 86.758 490.914 85.79 490.311 85.102 489.708 84.415 488.84 84.073 487.708 84.073 486.678 84.073 485.88 84.36 485.313 84.936 484.747 85.512 484.465 86.323 484.465 87.364 484.465 88.219 484.771 88.934 485.382 89.51 485.996 90.086 486.942 90.604 488.223 91.059 490.218 91.719 491.646 92.532 492.504 93.496 493.362 94.461 493.791 95.723 493.791 97.284 493.791 98.926 493.258 100.241 492.19 101.229 491.123 102.217 489.671 102.711 487.833 102.711 486.654 102.711 485.566 102.454 484.567 101.94 483.571 101.424 482.787 100.7 482.216 99.768 481.646 98.834 481.359 97.766 481.359 96.559L483.922 96.559C483.922 97.811 484.271 98.786 484.973 99.483 485.673 100.178 486.627 100.526 487.833 100.526 488.956 100.526 489.801 100.239 490.367 99.663 490.933 99.088 491.216 98.303 491.216 97.311M506.271 97.311C506.271 96.299 505.998 95.524 505.45 94.987 504.902 94.448 503.914 93.924 502.485 93.412 501.056 92.903 499.963 92.366 499.207 91.805 498.45 91.245 497.885 90.604 497.509 89.883 497.133 89.165 496.943 88.34 496.943 87.412 496.943 85.807 497.479 84.485 498.553 83.446 499.624 82.407 501.027 81.887 502.762 81.887 503.951 81.887 505.01 82.151 505.938 82.682 506.865 83.211 507.58 83.95 508.081 84.895 508.582 85.84 508.833 86.879 508.833 88.012L506.271 88.012C506.271 86.758 505.97 85.79 505.367 85.102 504.762 84.415 503.895 84.073 502.762 84.073 501.733 84.073 500.935 84.36 500.368 84.936 499.802 85.512 499.521 86.323 499.521 87.364 499.521 88.219 499.826 88.934 500.438 89.51 501.052 90.086 501.998 90.604 503.278 91.059 505.273 91.719 506.7 92.532 507.559 93.496 508.417 94.461 508.846 95.723 508.846 97.284 508.846 98.926 508.313 100.241 507.246 101.229 506.178 102.217 504.727 102.711 502.889 102.711 501.709 102.711 500.622 102.454 499.624 101.94 498.627 101.424 497.843 100.7 497.271 99.768 496.7 98.834 496.416 97.766 496.416 96.559L498.978 96.559C498.978 97.811 499.327 98.786 500.027 99.483 500.729 100.178 501.683 100.526 502.889 100.526 504.012 100.526 504.855 100.239 505.422 99.663 505.987 99.088 506.271 98.303 506.271 97.311"/>
    <polygon fill="#1A1919" points="512.584 102.434 515.132 102.434 515.132 82.165 512.584 82.165"/>
    <path fill="#1A1919" d="M530.521,90.532 C530.521,88.387 530.169,86.793 529.47,85.75 C528.769,84.706 527.694,84.184 526.247,84.184 C524.845,84.184 523.784,84.713 523.065,85.77 C522.346,86.828 521.982,88.387 521.973,90.448 L521.973,94.081 C521.973,96.151 522.332,97.729 523.052,98.815 C523.771,99.901 524.845,100.444 526.274,100.444 C527.703,100.444 528.762,99.942 529.448,98.94 C530.134,97.938 530.492,96.401 530.521,94.332 L530.521,90.532 Z M533.067,94.081 C533.067,96.846 532.479,98.977 531.3,100.471 C530.12,101.965 528.446,102.711 526.274,102.711 C524.187,102.711 522.536,101.987 521.324,100.534 C520.114,99.081 519.485,97.028 519.439,94.374 L519.439,90.559 C519.439,87.85 520.038,85.727 521.235,84.19 C522.433,82.655 524.103,81.887 526.247,81.887 C528.381,81.887 530.045,82.621 531.237,84.092 C532.43,85.565 533.04,87.665 533.067,90.393 L533.067,94.081 Z"/>
    <polyline fill="#1A1919" points="550.531 102.434 547.97 102.434 539.854 86.815 539.854 102.434 537.293 102.434 537.293 82.165 539.854 82.165 547.998 97.854 547.998 82.165 550.531 82.165 550.531 102.434"/>
    <polyline fill="#1A1919" points="568.468 102.434 565.907 102.434 557.791 86.815 557.791 102.434 555.229 102.434 555.229 82.165 557.791 82.165 565.935 97.854 565.935 82.165 568.468 82.165 568.468 102.434"/>
    <polyline fill="#1A1919" points="582.883 93.065 575.714 93.065 575.714 100.249 584.066 100.249 584.066 102.434 573.166 102.434 573.166 82.165 583.926 82.165 583.926 84.35 575.714 84.35 575.714 90.879 582.883 90.879 582.883 93.065"/>
    <polyline fill="#1A1919" points="590.169 100.249 598.118 100.249 598.118 102.434 587.607 102.434 587.607 82.165 590.169 82.165 590.169 100.249"/>
    <polyline fill="#1A1919" points="604 100.249 611.948 100.249 611.948 102.434 601.438 102.434 601.438 82.165 604 82.165 604 100.249"/>
    <polyline fill="#1A1919" points="624.985 93.065 617.815 93.065 617.815 100.249 626.169 100.249 626.169 102.434 615.269 102.434 615.269 82.165 626.029 82.165 626.029 84.35 617.815 84.35 617.815 90.879 624.985 90.879 624.985 93.065"/>
  </g>
</svg>
